<?xml version="1.0" encoding="utf-8"?>
<svg xmlns="http://www.w3.org/2000/svg" fill="none" viewBox="0 0 16 16">
          <g clip-path="url(#clip0_3721_16)">
            <path d="M8 15.933C12.389 15.933 15.947 12.3749 15.947 7.98593C15.947 3.59691 12.389 0.0389099 8 0.0389099C3.61098 0.0389099 0.0529785 3.59691 0.0529785 7.98593C0.0529785 12.3749 3.61098 15.933 8 15.933Z" fill="#E62058"/>
            <path d="M11.5326 3.9588H12.9766L9.97118 6.93532C9.44572 7.45304 8.73769 7.74326 8.00005 7.74326C7.2624 7.74326 6.55438 7.45304 6.02891 6.93532L3.021 3.9588H4.46749L6.75091 6.2188C7.08344 6.54701 7.53183 6.73104 7.99905 6.73104C8.46625 6.73104 8.91466 6.54701 9.24719 6.2188L11.5326 3.9588ZM4.45002 12.2348H3.00351L6.02891 9.24028C6.55438 8.72257 7.2624 8.43237 8.00005 8.43237C8.73769 8.43237 9.44572 8.72257 9.97118 9.24028L12.9965 12.2343H11.5501L9.24918 9.95482C8.91666 9.62661 8.46825 9.44258 8.00105 9.44258C7.53384 9.44258 7.08543 9.62661 6.75291 9.95482L4.44951 12.2348H4.45002Z" fill="white"/>
          </g>
          <defs>
            <clipPath id="clip0_3721_16">
              <rect fill="white" height="16" width="16"/>
            </clipPath>
          </defs>
        </svg>