<?xml version="1.0" encoding="utf-8"?>
<svg xmlns="http://www.w3.org/2000/svg" fill="none" viewBox="0 0 16 16">
          <g clip-path="url(#clip0_3258_803)">
            <mask height="16" id="mask0_3258_803" maskUnits="userSpaceOnUse" width="16" x="0" y="0">
              <path d="M16 0H0V16H16V0Z" fill="white"/>
            </mask>
            <g mask="url(#mask0_3258_803)">
              <path d="M8 16C12.4183 16 16 12.4183 16 8C16 3.58172 12.4183 0 8 0C3.58172 0 0 3.58172 0 8C0 12.4183 3.58172 16 8 16Z" fill="#075A5A"/>
              <g opacity="0.5">
                <path d="M7.99902 11.2662L7.95432 11.3208V14.1058L7.99902 14.2363L11.629 9.12215L7.99902 11.2662Z" fill="#70A0A0"/>
                <path d="M7.99922 14.2363V11.2662L4.37138 9.12215L7.99922 14.2363Z" fill="#85AEAE"/>
              </g>
              <path d="M7.99911 10.649L7.95854 10.6985V13.2268L7.99911 13.3453L11.2945 8.70259L7.99911 10.649Z" fill="#C1DCDC"/>
              <path d="M7.99911 13.3453V10.649L4.70566 8.70259L7.99911 13.3453Z" fill="white"/>
              <g opacity="0.5">
                <path d="M7.99913 1.69539L7.91459 1.98266V10.3178L7.99913 10.4021L11.8667 8.11514L7.99913 1.69539Z" fill="#70A0A0"/>
                <path d="M7.99912 1.69537L4.13149 8.11512L7.99912 10.4021V6.35648V1.69537Z" fill="#85AEAE"/>
                <path d="M7.99909 10.4021L11.8666 8.11514L7.99909 6.35651V10.4021Z" fill="#85AEAE"/>
                <path d="M4.13145 8.11514L7.99908 10.4021V6.35651L4.13145 8.11514Z" fill="#85AEAE"/>
              </g>
              <path d="M7.9991 2.61111L7.92711 2.85574V9.95343L7.9991 10.0253L11.2925 8.07781L7.9991 2.61111Z" fill="#C1DCDC"/>
              <path d="M7.99911 2.61111L4.70566 8.07781L7.99911 10.0253V6.58026V2.61111Z" fill="white"/>
              <path d="M7.9991 10.0253L11.2925 8.0778L7.9991 6.58025V10.0253Z" fill="#A6C4C4"/>
              <path d="M4.70566 8.0778L7.99911 10.0253V6.58025L4.70566 8.0778Z" fill="#6F9F9F"/>
            </g>
          </g>
          <defs>
            <clipPath id="clip0_3258_803">
              <rect fill="white" height="16" width="16"/>
            </clipPath>
          </defs>
        </svg>